#Comment line ignore any data following # character 
#Hierarchical Translation and Rotation (.htr) file 
[Header]	
#Header keywords are followed by a single value 
FileType HTR		#Single word string
DataType HTRS		#Translation followed by rotation and scale data
FileVersion 1		#integer
NumSegments 84		#integer
NumFrames 2		#integer
DataFrameRate 30		#integer, data frame rate in this file
EulerRotationOrder ZYX
CalibrationUnits mm
RotationUnits Degrees
GlobalAxisofGravity Y
BoneLengthAxis Y
ScaleFactor 1.00
[SegmentNames&Hierarchy]
#CHILD	PARENT
MASTER GLOBAL
root MASTER
chest root
L_mid_tent01 root
R_mid_tent01 root
spine01 root
Bip01_Neck chest
L_humerus chest
R_humerus chest
weapon_bone chest
Bip01_Head Bip01_Neck
eye_left_bone Bip01_Head
eye_right_bone Bip01_Head
L_forearm L_humerus
L_front_hand L_forearm
L_weapon_bone L_forearm
L_front_hand01_01 L_front_hand
L_front_hand02_01 L_front_hand
L_front_hand03_01 L_front_hand
L_front_hand01_02 L_front_hand01_01
L_front_hand02_02 L_front_hand02_01
L_front_hand03_02 L_front_hand03_01
R_forearm R_humerus
R_front_hand R_forearm
R_weapon_bone R_forearm
R_front_hand01_01 R_front_hand
R_front_hand02_01 R_front_hand
R_front_hand03_01 R_front_hand
R_front_hand01_02 R_front_hand01_01
R_front_hand02_02 R_front_hand02_01
R_front_hand03_02 R_front_hand03_01
null_rope01_connect L_mid_tent01
Rope1_Seg01 null_rope01_connect
Rope1_Seg02 Rope1_Seg01
Rope1_Seg03 Rope1_Seg02
Rope1_Seg04 Rope1_Seg03
Rope1_Seg05 Rope1_Seg04
Rope1_Seg06 Rope1_Seg05
Rope1_Seg07 Rope1_Seg06
Rope1_Seg09 Rope1_Seg07
L_mid_hand01 Rope1_Seg09
L_mid_hand02 Rope1_Seg09
L_mid_hand03 Rope1_Seg09
null_rope02_connect R_mid_tent01
Rope2_Seg01 null_rope02_connect
Rope2_Seg02 Rope2_Seg01
Rope2_Seg03 Rope2_Seg02
Rope2_Seg04 Rope2_Seg03
Rope2_Seg05 Rope2_Seg04
Rope2_Seg06 Rope2_Seg05
Rope2_Seg07 Rope2_Seg06
Rope2_Seg09 Rope2_Seg07
R_mid_hand01 Rope2_Seg09
R_mid_hand02 Rope2_Seg09
R_mid_hand03 Rope2_Seg09
spine02 spine01
spine03 spine02
pelvis spine03
null_rope03_connect pelvis
null_rope04_connect pelvis
Rope3_Seg01 null_rope03_connect
Rope3_Seg02 Rope3_Seg01
Rope3_Seg03 Rope3_Seg02
Rope3_Seg04 Rope3_Seg03
Rope3_Seg05 Rope3_Seg04
Rope3_Seg06 Rope3_Seg05
Rope3_Seg07 Rope3_Seg06
Rope3_Seg08 Rope3_Seg07
Rope3_Seg09 Rope3_Seg08
R_rear_hand01 Rope3_Seg09
R_rear_hand02 Rope3_Seg09
R_rear_hand03 Rope3_Seg09
Rope4_Seg01 null_rope04_connect
Rope4_Seg02 Rope4_Seg01
Rope4_Seg03 Rope4_Seg02
Rope4_Seg04 Rope4_Seg03
Rope4_Seg05 Rope4_Seg04
Rope4_Seg06 Rope4_Seg05
Rope4_Seg07 Rope4_Seg06
Rope4_Seg08 Rope4_Seg07
Rope4_Seg09 Rope4_Seg08
L_rear_hand01 Rope4_Seg09
L_rear_hand02 Rope4_Seg09
L_rear_hand03 Rope4_Seg09
[BasePosition]
#SegmentName Tx, Ty, Tz, Rx, Ry, Rz, BoneLength
MASTER 0.000000 0.000000 0.000000 -90.000000 0.000000 0.000000 10.000000 
root 0.000000 0.000000 0.000000 0.000000 0.000000 0.000000 10.000000 
chest 0.000000 0.000000 0.000000 0.000000 0.000000 0.000000 10.000000 
L_mid_tent01 0.000000 0.000000 0.000000 0.000000 0.000000 0.000000 10.000000 
R_mid_tent01 0.000000 0.000000 0.000000 0.000000 0.000000 0.000000 10.000000 
spine01 0.000000 0.000000 0.000000 0.000000 0.000000 0.000000 10.000000 
Bip01_Neck 0.000000 0.000000 0.000000 0.000000 0.000000 0.000000 10.000000 
L_humerus 0.000000 0.000000 0.000000 0.000000 0.000000 0.000000 10.000000 
R_humerus 0.000000 0.000000 0.000000 0.000000 0.000000 0.000000 10.000000 
weapon_bone 0.000000 0.000000 0.000000 0.000000 0.000000 0.000000 10.000000 
Bip01_Head 0.000000 0.000000 0.000000 0.000000 0.000000 0.000000 10.000000 
eye_left_bone 0.000000 0.000000 0.000000 0.000000 0.000000 0.000000 10.000000 
eye_right_bone 0.000000 0.000000 0.000000 0.000000 0.000000 0.000000 10.000000 
L_forearm 0.000000 0.000000 0.000000 0.000000 0.000000 0.000000 10.000000 
L_front_hand 0.000000 0.000000 0.000000 0.000000 0.000000 0.000000 10.000000 
L_weapon_bone 0.000000 0.000000 0.000000 0.000000 0.000000 0.000000 10.000000 
L_front_hand01_01 0.000000 0.000000 0.000000 0.000000 0.000000 0.000000 10.000000 
L_front_hand02_01 0.000000 0.000000 0.000000 0.000000 0.000000 0.000000 10.000000 
L_front_hand03_01 0.000000 0.000000 0.000000 0.000000 0.000000 0.000000 10.000000 
L_front_hand01_02 0.000000 0.000000 0.000000 0.000000 0.000000 0.000000 10.000000 
L_front_hand02_02 0.000000 0.000000 0.000000 0.000000 0.000000 0.000000 10.000000 
L_front_hand03_02 0.000000 0.000000 0.000000 0.000000 0.000000 0.000000 10.000000 
R_forearm 0.000000 0.000000 0.000000 0.000000 0.000000 0.000000 10.000000 
R_front_hand 0.000000 0.000000 0.000000 0.000000 0.000000 0.000000 10.000000 
R_weapon_bone 0.000000 0.000000 0.000000 0.000000 0.000000 0.000000 10.000000 
R_front_hand01_01 0.000000 0.000000 0.000000 0.000000 0.000000 0.000000 10.000000 
R_front_hand02_01 0.000000 0.000000 0.000000 0.000000 0.000000 0.000000 10.000000 
R_front_hand03_01 0.000000 0.000000 0.000000 0.000000 0.000000 0.000000 10.000000 
R_front_hand01_02 0.000000 0.000000 0.000000 0.000000 0.000000 0.000000 10.000000 
R_front_hand02_02 0.000000 0.000000 0.000000 0.000000 0.000000 0.000000 10.000000 
R_front_hand03_02 0.000000 0.000000 0.000000 0.000000 0.000000 0.000000 10.000000 
null_rope01_connect 0.000000 0.000000 0.000000 0.000000 0.000000 0.000000 10.000000 
Rope1_Seg01 0.000000 0.000000 0.000000 0.000000 0.000000 0.000000 10.000000 
Rope1_Seg02 0.000000 0.000000 0.000000 0.000000 0.000000 0.000000 10.000000 
Rope1_Seg03 0.000000 0.000000 0.000000 0.000000 0.000000 0.000000 10.000000 
Rope1_Seg04 0.000000 0.000000 0.000000 0.000000 0.000000 0.000000 10.000000 
Rope1_Seg05 0.000000 0.000000 0.000000 0.000000 0.000000 0.000000 10.000000 
Rope1_Seg06 0.000000 0.000000 0.000000 0.000000 0.000000 0.000000 10.000000 
Rope1_Seg07 0.000000 0.000000 0.000000 0.000000 0.000000 0.000000 10.000000 
Rope1_Seg09 0.000000 0.000000 0.000000 0.000000 0.000000 0.000000 10.000000 
L_mid_hand01 0.000000 0.000000 0.000000 0.000000 0.000000 0.000000 10.000000 
L_mid_hand02 0.000000 0.000000 0.000000 0.000000 0.000000 0.000000 10.000000 
L_mid_hand03 0.000000 0.000000 0.000000 0.000000 0.000000 0.000000 10.000000 
null_rope02_connect 0.000000 0.000000 0.000000 0.000000 0.000000 0.000000 10.000000 
Rope2_Seg01 0.000000 0.000000 0.000000 0.000000 0.000000 0.000000 10.000000 
Rope2_Seg02 0.000000 0.000000 0.000000 0.000000 0.000000 0.000000 10.000000 
Rope2_Seg03 0.000000 0.000000 0.000000 0.000000 0.000000 0.000000 10.000000 
Rope2_Seg04 0.000000 0.000000 0.000000 0.000000 0.000000 0.000000 10.000000 
Rope2_Seg05 0.000000 0.000000 0.000000 0.000000 0.000000 0.000000 10.000000 
Rope2_Seg06 0.000000 0.000000 0.000000 0.000000 0.000000 0.000000 10.000000 
Rope2_Seg07 0.000000 0.000000 0.000000 0.000000 0.000000 0.000000 10.000000 
Rope2_Seg09 0.000000 0.000000 0.000000 0.000000 0.000000 0.000000 10.000000 
R_mid_hand01 0.000000 0.000000 0.000000 0.000000 0.000000 0.000000 10.000000 
R_mid_hand02 0.000000 0.000000 0.000000 0.000000 0.000000 0.000000 10.000000 
R_mid_hand03 0.000000 0.000000 0.000000 0.000000 0.000000 0.000000 10.000000 
spine02 0.000000 0.000000 0.000000 0.000000 0.000000 0.000000 10.000000 
spine03 0.000000 0.000000 0.000000 0.000000 0.000000 0.000000 10.000000 
pelvis 0.000000 0.000000 0.000000 0.000000 0.000000 0.000000 10.000000 
null_rope03_connect 0.000000 0.000000 0.000000 0.000000 0.000000 0.000000 10.000000 
null_rope04_connect 0.000000 0.000000 0.000000 0.000000 0.000000 0.000000 10.000000 
Rope3_Seg01 0.000000 0.000000 0.000000 0.000000 0.000000 0.000000 10.000000 
Rope3_Seg02 0.000000 0.000000 0.000000 0.000000 0.000000 0.000000 10.000000 
Rope3_Seg03 0.000000 0.000000 0.000000 0.000000 0.000000 0.000000 10.000000 
Rope3_Seg04 0.000000 0.000000 0.000000 0.000000 0.000000 0.000000 10.000000 
Rope3_Seg05 0.000000 0.000000 0.000000 0.000000 0.000000 0.000000 10.000000 
Rope3_Seg06 0.000000 0.000000 0.000000 0.000000 0.000000 0.000000 10.000000 
Rope3_Seg07 0.000000 0.000000 0.000000 0.000000 0.000000 0.000000 10.000000 
Rope3_Seg08 0.000000 0.000000 0.000000 0.000000 0.000000 0.000000 10.000000 
Rope3_Seg09 0.000000 0.000000 0.000000 0.000000 0.000000 0.000000 10.000000 
R_rear_hand01 0.000000 0.000000 0.000000 0.000000 0.000000 0.000000 10.000000 
R_rear_hand02 0.000000 0.000000 0.000000 0.000000 0.000000 0.000000 10.000000 
R_rear_hand03 0.000000 0.000000 0.000000 0.000000 0.000000 0.000000 10.000000 
Rope4_Seg01 0.000000 0.000000 0.000000 0.000000 0.000000 0.000000 10.000000 
Rope4_Seg02 0.000000 0.000000 0.000000 0.000000 0.000000 0.000000 10.000000 
Rope4_Seg03 0.000000 0.000000 0.000000 0.000000 0.000000 0.000000 10.000000 
Rope4_Seg04 0.000000 0.000000 0.000000 0.000000 0.000000 0.000000 10.000000 
Rope4_Seg05 0.000000 0.000000 0.000000 0.000000 0.000000 0.000000 10.000000 
Rope4_Seg06 0.000000 0.000000 0.000000 0.000000 0.000000 0.000000 10.000000 
Rope4_Seg07 0.000000 0.000000 0.000000 0.000000 0.000000 0.000000 10.000000 
Rope4_Seg08 0.000000 0.000000 0.000000 0.000000 0.000000 0.000000 10.000000 
Rope4_Seg09 0.000000 0.000000 0.000000 0.000000 0.000000 0.000000 10.000000 
L_rear_hand01 0.000000 0.000000 0.000000 0.000000 0.000000 0.000000 10.000000 
L_rear_hand02 0.000000 0.000000 0.000000 0.000000 0.000000 0.000000 10.000000 
L_rear_hand03 0.000000 0.000000 0.000000 0.000000 0.000000 0.000000 10.000000 
#Beginning of Data. Separated by tabs
#Fr	Tx	Ty	Tz	Rx	Ry	Rz	SF
[MASTER]
34 0.000003 -0.000041 4797.829590 0.001660 0.001660 0.001660 4797.829590
35 0.000003 -0.000046 4797.666016 0.001660 0.001660 0.001660 4797.666016
[root]
34 -16.502298 -28.483021 1473.914185 -68.568779 -11.997965 -88.568176 1474.281738
35 -16.502298 -29.277767 1474.712524 -68.072609 -12.033665 -87.820335 1475.095459
[chest]
34 -84.512650 -34.090519 0.000000 -125.235909 5.414702 143.751709 91.129311
35 -84.512650 -34.090519 0.000000 -139.529099 3.879852 140.826691 91.129311
[L_mid_tent01]
34 27.299055 22.178993 -249.918671 -157.723480 61.440277 -66.112999 252.381638
35 27.299053 22.178989 -249.918671 -163.259872 51.739822 -69.836624 252.381638
[R_mid_tent01]
34 23.228794 24.509907 226.238495 -67.031952 -83.107559 -45.293446 228.744751
35 23.228794 24.509907 226.238495 -106.773476 -83.831123 -5.370523 228.744751
[spine01]
34 -0.361383 -0.195265 0.000000 0.002062 0.001122 32.879829 0.410763
35 -0.361383 -0.195265 0.000000 0.002062 0.001122 32.879829 0.410763
[Bip01_Neck]
34 165.484543 71.581718 0.000119 176.643677 -1.657967 43.431911 180.302734
35 165.484543 71.581718 0.000119 176.643677 -1.657967 43.431911 180.302734
[L_humerus]
34 -13.983130 -135.272980 -120.471481 156.317398 70.210068 -112.010254 181.680161
35 -13.983130 -135.272980 -120.471481 156.317383 70.210045 -112.010246 181.680161
[R_humerus]
34 -13.983309 -135.273102 125.287651 -172.382263 -66.903831 -92.553993 184.909012
35 -13.983309 -135.273102 125.287651 -172.382263 -66.903831 -92.553993 184.909012
[weapon_bone]
34 235.964890 -300.705902 0.000000 0.000000 -89.951546 -128.212341 382.234833
35 235.964890 -300.705902 0.000000 0.000000 -89.951546 -128.212341 382.234833
[Bip01_Head]
34 213.326935 186.042343 7.559264 29.580883 5.785028 -43.842102 283.155914
35 213.326935 186.042328 7.559272 28.705772 5.697899 -43.842918 283.155914
[eye_left_bone]
34 -24.626970 125.451866 -64.772606 0.000000 -90.000000 -99.840431 143.318359
35 -24.626970 125.451866 -64.772606 0.000000 -90.000000 -99.840431 143.318359
[eye_right_bone]
34 -24.626970 125.451866 64.327362 0.000000 -89.965736 80.156380 143.117676
35 -24.626970 125.451866 64.327362 0.000000 -89.965736 80.156380 143.117676
[L_forearm]
34 322.776093 0.000000 -0.000119 0.000119 -0.002344 -95.807457 322.776093
35 322.776093 0.000000 -0.000119 0.000119 -0.002344 -95.807457 322.776093
[L_front_hand]
34 241.149185 -0.042021 -3.300071 -178.667953 -1.835447 -27.422350 241.171753
35 241.149185 -0.042021 -3.300071 -178.667953 -1.835447 -27.422342 241.171753
[L_weapon_bone]
34 156.183838 0.000000 0.000000 0.000014 0.000007 0.000001 156.183838
35 156.183838 0.000000 0.000000 0.000014 0.000007 0.000001 156.183838
[L_front_hand01_01]
34 86.095154 20.947098 -0.655860 -0.366594 -0.477154 75.385574 88.609184
35 86.095154 20.947098 -0.655860 -0.366594 -0.477154 75.385574 88.609184
[L_front_hand02_01]
34 86.935165 -11.437475 24.513514 154.399796 -59.883835 -61.369587 91.046425
35 86.935165 -11.437475 24.513514 154.399796 -59.883835 -61.369587 91.046425
[L_front_hand03_01]
34 86.637497 -14.123976 -20.424902 -153.913849 58.118122 -62.702866 90.126129
35 86.637497 -14.123976 -20.424902 -153.913849 58.118122 -62.702866 90.126129
[L_front_hand01_02]
34 71.020905 -0.000179 0.000030 0.000334 -0.002323 -106.379684 71.020905
35 71.020905 -0.000179 0.000030 0.000334 -0.002323 -106.379684 71.020905
[L_front_hand02_02]
34 71.020927 -0.000119 0.000060 0.000334 -0.002323 -106.379684 71.020927
35 71.020927 -0.000119 0.000060 0.000334 -0.002323 -106.379684 71.020927
[L_front_hand03_02]
34 71.020905 -0.000060 0.000060 0.000334 -0.002323 -106.379684 71.020905
35 71.020905 -0.000060 0.000060 0.000334 -0.002323 -106.379684 71.020905
[R_forearm]
34 322.776428 -0.000060 0.000030 0.209504 0.012586 -94.339050 322.776428
35 322.776428 -0.000060 0.000030 0.209504 0.012586 -94.339050 322.776428
[R_front_hand]
34 238.847015 -0.006795 2.210259 -2.635298 -10.645461 -26.312506 238.857239
35 238.847015 -0.006795 2.210259 -2.635298 -10.645461 -26.312506 238.857239
[R_weapon_bone]
34 155.664093 0.002503 -0.000030 0.003487 0.001180 -90.988930 155.664078
35 155.664093 0.002503 -0.000030 0.003487 0.001180 -90.988930 155.664078
[R_front_hand01_01]
34 87.624611 14.231146 22.918642 -154.633499 -59.950619 61.746044 91.683487
35 87.624611 14.231146 22.918642 -154.633484 -59.950607 61.746033 91.683487
[R_front_hand02_01]
34 89.356956 14.367283 -19.491137 154.602661 58.302849 63.744389 92.579636
35 89.356956 14.367283 -19.491137 154.602661 58.302849 63.744389 92.579636
[R_front_hand03_01]
34 87.286232 -22.307278 -0.143439 0.162155 -0.423168 -75.767921 90.091743
35 87.286232 -22.307278 -0.143439 0.162155 -0.423168 -75.767921 90.091743
[R_front_hand01_02]
34 71.020905 0.000060 0.000119 0.002323 -0.000334 106.381714 71.020905
35 71.020905 0.000060 0.000119 0.002323 -0.000334 106.381714 71.020905
[R_front_hand02_02]
34 71.020844 -0.000030 -0.000119 0.002323 -0.000334 106.381714 71.020836
35 71.020844 -0.000030 -0.000119 0.002323 -0.000334 106.381714 71.020836
[R_front_hand03_02]
34 71.020905 0.000000 0.000030 0.002323 -0.000334 106.381714 71.020905
35 71.020905 0.000000 0.000030 0.002323 -0.000334 106.381714 71.020905
[null_rope01_connect]
34 328.732483 0.000000 -0.000238 -166.882828 4.504009 -167.349533 328.732483
35 328.732483 0.000000 -0.000238 -166.763611 13.953038 -165.316345 328.732483
[Rope1_Seg01]
34 0.000010 -0.000067 0.000458 -9.181395 6.885207 -174.752106 0.000463
35 0.000009 -0.000068 0.000472 -15.137583 -4.956487 -173.387466 0.000477
[Rope1_Seg02]
34 139.999863 -0.000179 0.000000 -14.915930 -29.577953 -18.349724 139.999863
35 139.999863 -0.000179 0.000000 -13.610666 -18.024139 -17.986006 139.999863
[Rope1_Seg03]
34 139.999924 0.000060 -0.000060 -8.696164 -12.930056 -18.086725 139.999924
35 139.999924 0.000060 -0.000060 -7.230984 -7.332427 -19.613861 139.999924
[Rope1_Seg04]
34 139.999924 -0.000060 -0.000119 -7.274075 -17.753056 -17.901810 139.999924
35 139.999924 -0.000060 -0.000119 -6.432936 -23.553082 -21.205132 139.999924
[Rope1_Seg05]
34 139.999832 0.000119 -0.000060 -4.241910 -10.223675 -12.620133 139.999832
35 139.999832 0.000119 -0.000060 -3.429111 -9.675221 -10.504249 139.999832
[Rope1_Seg06]
34 139.999954 0.000119 -0.000060 -1.687624 -3.567521 -5.891738 139.999954
35 139.999954 0.000119 -0.000060 -1.392671 -3.288806 -4.729691 139.999954
[Rope1_Seg07]
34 139.999985 0.000060 0.000000 -0.906465 -1.995916 -3.549614 139.999985
35 139.999985 0.000060 0.000000 -0.764854 -1.837712 -2.800872 139.999985
[Rope1_Seg09]
34 121.602913 0.000119 -0.000089 -89.793175 -1.359789 0.847147 121.602913
35 121.602913 0.000119 -0.000089 -89.793175 -1.359789 0.847147 121.602913
[L_mid_hand01]
34 103.859421 1.038730 8.195221 130.544373 -67.584534 -38.866943 104.187431
35 103.859421 1.038730 8.195221 130.544373 -67.584534 -38.866943 104.187431
[L_mid_hand02]
34 105.572853 -4.139662 -10.864139 -168.923172 43.409309 -73.498886 106.211075
35 105.572853 -4.139662 -10.864139 -168.923172 43.409309 -73.498886 106.211075
[L_mid_hand03]
34 104.641464 17.579376 -3.913581 -6.012627 17.808174 74.893669 106.179977
35 104.641464 17.579376 -3.913581 -6.012627 17.808178 74.893677 106.179977
[null_rope02_connect]
34 328.732849 0.000179 -0.000119 -144.091339 -23.234848 -13.788197 328.732849
35 328.732849 0.000179 -0.000119 -145.275848 -19.748472 -12.518102 328.732849
[Rope2_Seg01]
34 -0.000095 0.000095 0.000000 76.655228 34.510445 10.898054 0.000134
35 -0.000101 0.000094 0.000000 79.335442 32.072323 13.964578 0.000138
[Rope2_Seg02]
34 139.999741 -0.000060 -0.000119 2.558564 1.320005 8.017519 139.999756
35 139.999741 -0.000060 -0.000119 2.767735 1.703211 8.833561 139.999756
[Rope2_Seg03]
34 140.000107 0.000030 0.000000 6.484955 3.414972 16.520292 140.000107
35 140.000107 0.000030 0.000000 7.017031 4.289133 18.082726 140.000107
[Rope2_Seg04]
34 139.999802 0.000000 -0.000060 18.636190 12.279626 36.738674 139.999802
35 139.999802 0.000000 -0.000060 17.636055 13.548963 36.078598 139.999802
[Rope2_Seg05]
34 139.999985 -0.000060 0.000119 12.353326 16.328833 26.740358 139.999985
35 139.999985 -0.000060 0.000119 9.717838 14.459826 23.434263 139.999985
[Rope2_Seg06]
34 139.999893 -0.000030 -0.000119 3.691421 5.893969 13.575360 139.999893
35 139.999893 -0.000030 -0.000119 3.497351 5.485283 13.669477 139.999893
[Rope2_Seg07]
34 139.999893 0.000060 -0.000060 3.126740 4.715881 12.135557 139.999893
35 139.999893 0.000060 -0.000060 3.040260 4.997304 11.981151 139.999893
[Rope2_Seg09]
34 121.338966 0.000089 -0.000060 33.793236 -1.359788 -0.847141 121.338966
35 121.338966 0.000089 -0.000060 33.793236 -1.359788 -0.847141 121.338966
[R_mid_hand01]
34 104.680779 11.144459 -10.335981 -16.212063 45.237247 70.462852 105.778534
35 104.680779 11.144459 -10.335981 -16.212063 45.237247 70.462852 105.778534
[R_mid_hand02]
34 104.070427 2.443552 8.231699 49.067368 -67.749771 39.286453 104.424065
35 104.070427 2.443552 8.231699 49.067368 -67.749771 39.286453 104.424065
[R_mid_hand03]
34 106.028137 -11.221827 -5.996406 -177.101105 15.551026 -76.585571 106.788818
35 106.028137 -11.221827 -5.996406 -177.101105 15.551026 -76.585571 106.788818
[spine02]
34 129.756927 0.001550 0.000119 -1.023899 -3.926965 6.770993 129.756927
35 129.756927 0.001550 0.000119 -1.023899 -3.926965 6.770993 129.756927
[spine03]
34 78.613998 0.081737 -4.898994 1.040681 4.146420 4.212376 78.766541
35 78.613998 0.081737 -4.898993 1.040681 4.146420 4.212376 78.766541
[pelvis]
34 169.435242 0.051022 0.000000 0.019518 -0.190233 -10.721436 169.435257
35 169.435242 0.051022 0.000000 0.019518 -0.190233 -10.721436 169.435257
[null_rope03_connect]
34 -1.257226 -2.466202 137.391083 15.872742 -68.498680 52.824322 137.418976
35 -1.257226 -2.466202 137.391083 17.580454 -67.787643 51.003353 137.418976
[null_rope04_connect]
34 -1.259640 -2.480268 -137.844437 15.872742 -68.498680 52.824322 137.872513
35 -1.259640 -2.480268 -137.844437 17.580454 -67.787643 51.003353 137.872513
[Rope3_Seg01]
34 0.000000 0.000000 0.000000 16.421543 2.264961 -52.858578 0.000000
35 0.000000 0.000000 0.000000 16.151102 1.655310 -52.814388 0.000000
[Rope3_Seg02]
34 139.999924 -0.000119 0.000060 -3.450592 -6.909367 3.234111 139.999924
35 139.999924 -0.000119 0.000060 -3.344225 -6.649092 3.244363 139.999924
[Rope3_Seg03]
34 139.999924 -0.000119 0.000119 -4.450206 -9.870400 3.973478 139.999924
35 139.999924 -0.000119 0.000119 -4.425132 -9.633906 4.075740 139.999924
[Rope3_Seg04]
34 139.999924 0.000119 0.000000 -5.377717 -13.947429 4.905668 139.999924
35 139.999924 0.000119 0.000000 -5.582756 -13.955918 5.226158 139.999924
[Rope3_Seg05]
34 139.999924 -0.000238 0.000060 -4.498326 -16.141611 4.999989 139.999924
35 139.999924 -0.000238 0.000060 -5.033638 -16.872156 5.689669 139.999924
[Rope3_Seg06]
34 139.999893 -0.000119 -0.000060 -1.184870 -13.186154 0.746049 139.999893
35 139.999893 -0.000119 -0.000060 -1.315917 -13.673738 0.727340 139.999893
[Rope3_Seg07]
34 139.999771 0.000060 -0.000119 1.062653 -14.546749 -2.841615 139.999771
35 139.999771 0.000060 -0.000119 1.125561 -14.271672 -3.519239 139.999771
[Rope3_Seg08]
34 139.999985 -0.000060 0.000000 2.734589 -13.599163 -1.779266 139.999985
35 139.999985 -0.000060 0.000000 2.701691 -13.171861 -2.207739 139.999985
[Rope3_Seg09]
34 90.185997 -0.000179 -0.000060 89.793228 -1.359877 -0.847183 90.185997
35 90.185997 -0.000179 -0.000060 89.793228 -1.359877 -0.847183 90.185997
[R_rear_hand01]
34 103.366196 -6.073594 -10.757982 -177.714203 24.565960 -73.910950 104.101845
35 103.366196 -6.073594 -10.757982 -177.714203 24.565960 -73.910950 104.101845
[R_rear_hand02]
34 100.509819 12.039542 -7.992327 -12.874829 36.868488 72.167213 101.543350
35 100.509819 12.039542 -7.992327 -12.874829 36.868488 72.167213 101.543350
[R_rear_hand03]
34 101.539970 5.215704 5.435467 71.484581 -71.816628 21.513813 101.819031
35 101.539970 5.215704 5.435467 71.484581 -71.816628 21.513813 101.819031
[Rope4_Seg01]
34 0.000010 0.000010 -0.000038 -98.677650 1.022498 -107.043221 0.000040
35 0.000010 0.000009 -0.000035 -98.434402 -2.150286 -107.118553 0.000037
[Rope4_Seg02]
34 139.999985 0.000060 0.000119 0.558228 4.024223 -10.151955 139.999985
35 139.999985 0.000060 0.000119 0.399166 3.734107 -9.720520 139.999985
[Rope4_Seg03]
34 139.999924 0.000000 -0.000238 0.267591 6.031295 -16.113430 139.999924
35 139.999924 0.000000 -0.000238 0.087362 5.441288 -14.819983 139.999924
[Rope4_Seg04]
34 139.999985 0.000000 0.000119 -0.969201 9.414614 -24.063416 139.999985
35 139.999985 0.000000 0.000119 -0.997622 8.409822 -21.708130 139.999985
[Rope4_Seg05]
34 139.999802 -0.000060 -0.000119 -0.761961 6.269572 -18.365675 139.999802
35 139.999802 -0.000060 -0.000119 -0.977668 6.460459 -18.090120 139.999802
[Rope4_Seg06]
34 139.999924 0.000000 0.000060 -0.139113 -0.330188 -7.907458 139.999924
35 139.999924 0.000000 0.000060 -0.261301 0.398695 -8.568288 139.999924
[Rope4_Seg07]
34 139.999802 0.000000 0.000000 -0.179008 -2.373561 -5.378676 139.999802
35 139.999802 0.000000 0.000000 -0.243964 -1.981823 -5.838395 139.999802
[Rope4_Seg08]
34 139.999924 0.000000 0.000119 -2.258860 -0.258727 -5.416801 139.999924
35 139.999924 0.000000 0.000119 -2.339901 -0.018898 -5.852464 139.999924
[Rope4_Seg09]
34 90.185791 0.000060 0.000060 -135.617828 2.228885 0.850567 90.185791
35 90.185791 0.000060 0.000060 -135.617828 2.228885 0.850567 90.185791
[L_rear_hand01]
34 101.696655 -8.392275 -7.654577 -12.874829 -36.868488 107.832764 102.329041
35 101.696655 -8.392275 -7.654577 -12.874829 -36.868488 107.832764 102.329041
[L_rear_hand02]
34 102.726799 -1.568258 5.773216 71.484581 71.816628 158.486160 102.900848
35 102.726799 -1.568258 5.773216 71.484581 71.816628 158.486160 102.900848
[L_rear_hand03]
34 104.552910 9.721220 -10.420293 -177.714203 -24.565960 -106.089035 105.519653
35 104.552910 9.721220 -10.420293 -177.714203 -24.565960 -106.089035 105.519653
